<mxfile host="app.diagrams.net" modified="2024-03-21T11:17:38.070Z" agent="Mozilla/5.0 (Windows NT 10.0; Win64; x64) AppleWebKit/537.36 (KHTML, like Gecko) Chrome/123.0.0.0 Safari/537.36" etag="JNG0BVX3tWOoUm_XfVyZ" version="24.0.7" type="device">
  <diagram name="Page-1" id="GrG2WJGlX1CBHEYzQIkW">
    <mxGraphModel dx="1167" dy="580" grid="0" gridSize="8" guides="1" tooltips="1" connect="1" arrows="1" fold="1" page="1" pageScale="1" pageWidth="850" pageHeight="1100" background="#f9e4d2" math="0" shadow="1">
      <root>
        <mxCell id="0" />
        <mxCell id="1" parent="0" />
        <mxCell id="rF2TNDhUBK_6BHk54DkQ-1" value="&lt;font style=&quot;font-size: 15px;&quot;&gt;&lt;b&gt;C(t-1)&lt;/b&gt;&lt;/font&gt;" style="ellipse;shape=cloud;whiteSpace=wrap;html=1;fillColor=#ffe6cc;strokeColor=#d79b00;" vertex="1" parent="1">
          <mxGeometry x="40" y="100" width="120" height="100" as="geometry" />
        </mxCell>
        <mxCell id="rF2TNDhUBK_6BHk54DkQ-2" value="" style="endArrow=none;html=1;rounded=0;exitX=0.875;exitY=0.5;exitDx=0;exitDy=0;exitPerimeter=0;" edge="1" parent="1" source="rF2TNDhUBK_6BHk54DkQ-1">
          <mxGeometry width="50" height="50" relative="1" as="geometry">
            <mxPoint x="400" y="300" as="sourcePoint" />
            <mxPoint x="230" y="150" as="targetPoint" />
          </mxGeometry>
        </mxCell>
        <mxCell id="rF2TNDhUBK_6BHk54DkQ-3" value="&lt;font style=&quot;font-size: 13px;&quot;&gt;&lt;b&gt;X&lt;/b&gt;&lt;/font&gt;" style="shape=parallelogram;perimeter=parallelogramPerimeter;whiteSpace=wrap;html=1;fixedSize=1;fillColor=#f8cecc;strokeColor=#b85450;" vertex="1" parent="1">
          <mxGeometry x="220" y="120" width="90" height="55" as="geometry" />
        </mxCell>
        <mxCell id="rF2TNDhUBK_6BHk54DkQ-5" value="&lt;font size=&quot;1&quot; style=&quot;&quot;&gt;&lt;b style=&quot;font-size: 16px;&quot;&gt;+&lt;/b&gt;&lt;/font&gt;" style="shape=parallelogram;perimeter=parallelogramPerimeter;whiteSpace=wrap;html=1;fixedSize=1;fillColor=#f8cecc;strokeColor=#b85450;" vertex="1" parent="1">
          <mxGeometry x="410" y="120" width="90" height="52.5" as="geometry" />
        </mxCell>
        <mxCell id="rF2TNDhUBK_6BHk54DkQ-6" value="" style="endArrow=classic;html=1;rounded=0;exitX=0.884;exitY=0.564;exitDx=0;exitDy=0;exitPerimeter=0;" edge="1" parent="1" source="rF2TNDhUBK_6BHk54DkQ-5">
          <mxGeometry width="50" height="50" relative="1" as="geometry">
            <mxPoint x="310" y="290" as="sourcePoint" />
            <mxPoint x="760" y="150" as="targetPoint" />
          </mxGeometry>
        </mxCell>
        <mxCell id="rF2TNDhUBK_6BHk54DkQ-8" value="" style="endArrow=none;html=1;rounded=0;exitX=0.883;exitY=0.554;exitDx=0;exitDy=0;entryX=0.073;entryY=0.575;entryDx=0;entryDy=0;entryPerimeter=0;exitPerimeter=0;" edge="1" parent="1" source="rF2TNDhUBK_6BHk54DkQ-3" target="rF2TNDhUBK_6BHk54DkQ-5">
          <mxGeometry width="50" height="50" relative="1" as="geometry">
            <mxPoint x="310" y="290" as="sourcePoint" />
            <mxPoint x="360" y="240" as="targetPoint" />
          </mxGeometry>
        </mxCell>
        <mxCell id="rF2TNDhUBK_6BHk54DkQ-10" value="&lt;font style=&quot;font-size: 15px;&quot;&gt;&lt;b&gt;X(t)&lt;/b&gt;&lt;/font&gt;" style="ellipse;shape=cloud;whiteSpace=wrap;html=1;fillColor=#ffe6cc;strokeColor=#d79b00;" vertex="1" parent="1">
          <mxGeometry x="40" y="280" width="120" height="80" as="geometry" />
        </mxCell>
        <mxCell id="rF2TNDhUBK_6BHk54DkQ-11" value="&lt;font style=&quot;font-size: 15px;&quot;&gt;&lt;b&gt;h(t-1)&lt;/b&gt;&lt;/font&gt;" style="ellipse;shape=cloud;whiteSpace=wrap;html=1;fillColor=#ffe6cc;strokeColor=#d79b00;" vertex="1" parent="1">
          <mxGeometry x="40" y="420" width="120" height="80" as="geometry" />
        </mxCell>
        <mxCell id="rF2TNDhUBK_6BHk54DkQ-12" value="" style="endArrow=none;html=1;rounded=0;exitX=0.875;exitY=0.5;exitDx=0;exitDy=0;exitPerimeter=0;" edge="1" parent="1" source="rF2TNDhUBK_6BHk54DkQ-10">
          <mxGeometry width="50" height="50" relative="1" as="geometry">
            <mxPoint x="330" y="320" as="sourcePoint" />
            <mxPoint x="200" y="320" as="targetPoint" />
          </mxGeometry>
        </mxCell>
        <mxCell id="rF2TNDhUBK_6BHk54DkQ-13" value="" style="endArrow=none;html=1;rounded=0;exitX=0.875;exitY=0.5;exitDx=0;exitDy=0;exitPerimeter=0;" edge="1" parent="1" source="rF2TNDhUBK_6BHk54DkQ-11">
          <mxGeometry width="50" height="50" relative="1" as="geometry">
            <mxPoint x="330" y="320" as="sourcePoint" />
            <mxPoint x="200" y="460" as="targetPoint" />
          </mxGeometry>
        </mxCell>
        <mxCell id="rF2TNDhUBK_6BHk54DkQ-14" value="" style="endArrow=none;html=1;rounded=0;" edge="1" parent="1">
          <mxGeometry width="50" height="50" relative="1" as="geometry">
            <mxPoint x="200" y="320" as="sourcePoint" />
            <mxPoint x="200" y="460" as="targetPoint" />
          </mxGeometry>
        </mxCell>
        <mxCell id="rF2TNDhUBK_6BHk54DkQ-15" value="" style="endArrow=none;html=1;rounded=0;" edge="1" parent="1">
          <mxGeometry width="50" height="50" relative="1" as="geometry">
            <mxPoint x="200" y="400" as="sourcePoint" />
            <mxPoint x="590" y="400" as="targetPoint" />
          </mxGeometry>
        </mxCell>
        <mxCell id="rF2TNDhUBK_6BHk54DkQ-17" value="Sigmoid" style="ellipse;whiteSpace=wrap;html=1;align=center;newEdgeStyle={&quot;edgeStyle&quot;:&quot;entityRelationEdgeStyle&quot;,&quot;startArrow&quot;:&quot;none&quot;,&quot;endArrow&quot;:&quot;none&quot;,&quot;segment&quot;:10,&quot;curved&quot;:1,&quot;sourcePerimeterSpacing&quot;:0,&quot;targetPerimeterSpacing&quot;:0};treeFolding=1;treeMoving=1;fillColor=#b0e3e6;strokeColor=#0e8088;" vertex="1" parent="1">
          <mxGeometry x="215" y="260" width="100" height="40" as="geometry" />
        </mxCell>
        <mxCell id="rF2TNDhUBK_6BHk54DkQ-18" value="" style="endArrow=none;html=1;rounded=0;entryX=0.46;entryY=0.988;entryDx=0;entryDy=0;entryPerimeter=0;" edge="1" parent="1" target="rF2TNDhUBK_6BHk54DkQ-17">
          <mxGeometry width="50" height="50" relative="1" as="geometry">
            <mxPoint x="260" y="400" as="sourcePoint" />
            <mxPoint x="310" y="280" as="targetPoint" />
          </mxGeometry>
        </mxCell>
        <mxCell id="rF2TNDhUBK_6BHk54DkQ-19" value="" style="endArrow=classic;html=1;rounded=0;exitX=0.445;exitY=0.002;exitDx=0;exitDy=0;exitPerimeter=0;entryX=0.435;entryY=0.984;entryDx=0;entryDy=0;entryPerimeter=0;" edge="1" parent="1" source="rF2TNDhUBK_6BHk54DkQ-17" target="rF2TNDhUBK_6BHk54DkQ-3">
          <mxGeometry width="50" height="50" relative="1" as="geometry">
            <mxPoint x="250" y="190" as="sourcePoint" />
            <mxPoint x="300" y="140" as="targetPoint" />
          </mxGeometry>
        </mxCell>
        <mxCell id="rF2TNDhUBK_6BHk54DkQ-20" value="&lt;b&gt;X&lt;/b&gt;" style="shape=parallelogram;perimeter=parallelogramPerimeter;whiteSpace=wrap;html=1;fixedSize=1;fillColor=#f8cecc;strokeColor=#b85450;" vertex="1" parent="1">
          <mxGeometry x="410" y="220" width="90" height="60" as="geometry" />
        </mxCell>
        <mxCell id="rF2TNDhUBK_6BHk54DkQ-21" value="Sigmoid" style="ellipse;whiteSpace=wrap;html=1;align=center;newEdgeStyle={&quot;edgeStyle&quot;:&quot;entityRelationEdgeStyle&quot;,&quot;startArrow&quot;:&quot;none&quot;,&quot;endArrow&quot;:&quot;none&quot;,&quot;segment&quot;:10,&quot;curved&quot;:1,&quot;sourcePerimeterSpacing&quot;:0,&quot;targetPerimeterSpacing&quot;:0};treeFolding=1;treeMoving=1;fillColor=#b0e3e6;strokeColor=#0e8088;" vertex="1" parent="1">
          <mxGeometry x="310" y="330" width="90" height="30" as="geometry" />
        </mxCell>
        <mxCell id="rF2TNDhUBK_6BHk54DkQ-22" value="tanh" style="ellipse;whiteSpace=wrap;html=1;align=center;newEdgeStyle={&quot;edgeStyle&quot;:&quot;entityRelationEdgeStyle&quot;,&quot;startArrow&quot;:&quot;none&quot;,&quot;endArrow&quot;:&quot;none&quot;,&quot;segment&quot;:10,&quot;curved&quot;:1,&quot;sourcePerimeterSpacing&quot;:0,&quot;targetPerimeterSpacing&quot;:0};treeFolding=1;treeMoving=1;fillColor=#b0e3e6;strokeColor=#0e8088;" vertex="1" parent="1">
          <mxGeometry x="420" y="332.5" width="70" height="25" as="geometry" />
        </mxCell>
        <mxCell id="rF2TNDhUBK_6BHk54DkQ-23" value="" style="endArrow=none;html=1;rounded=0;entryX=0.45;entryY=0.98;entryDx=0;entryDy=0;entryPerimeter=0;" edge="1" parent="1" target="rF2TNDhUBK_6BHk54DkQ-21">
          <mxGeometry width="50" height="50" relative="1" as="geometry">
            <mxPoint x="350" y="400" as="sourcePoint" />
            <mxPoint x="470" y="250" as="targetPoint" />
          </mxGeometry>
        </mxCell>
        <mxCell id="rF2TNDhUBK_6BHk54DkQ-24" value="" style="endArrow=none;html=1;rounded=0;exitX=0.44;exitY=-0.016;exitDx=0;exitDy=0;exitPerimeter=0;" edge="1" parent="1" source="rF2TNDhUBK_6BHk54DkQ-21">
          <mxGeometry width="50" height="50" relative="1" as="geometry">
            <mxPoint x="390" y="350" as="sourcePoint" />
            <mxPoint x="350" y="250" as="targetPoint" />
          </mxGeometry>
        </mxCell>
        <mxCell id="rF2TNDhUBK_6BHk54DkQ-25" value="" style="endArrow=classic;html=1;rounded=0;entryX=0;entryY=0.5;entryDx=0;entryDy=0;" edge="1" parent="1" target="rF2TNDhUBK_6BHk54DkQ-20">
          <mxGeometry width="50" height="50" relative="1" as="geometry">
            <mxPoint x="350" y="250" as="sourcePoint" />
            <mxPoint x="440" y="260" as="targetPoint" />
          </mxGeometry>
        </mxCell>
        <mxCell id="rF2TNDhUBK_6BHk54DkQ-26" value="" style="endArrow=none;html=1;rounded=0;entryX=0.437;entryY=0.996;entryDx=0;entryDy=0;entryPerimeter=0;" edge="1" parent="1" target="rF2TNDhUBK_6BHk54DkQ-22">
          <mxGeometry width="50" height="50" relative="1" as="geometry">
            <mxPoint x="450" y="400" as="sourcePoint" />
            <mxPoint x="450" y="360" as="targetPoint" />
          </mxGeometry>
        </mxCell>
        <mxCell id="rF2TNDhUBK_6BHk54DkQ-27" value="" style="endArrow=none;html=1;rounded=0;entryX=0.444;entryY=1.004;entryDx=0;entryDy=0;entryPerimeter=0;exitX=0.433;exitY=-0.012;exitDx=0;exitDy=0;exitPerimeter=0;" edge="1" parent="1" source="rF2TNDhUBK_6BHk54DkQ-22" target="rF2TNDhUBK_6BHk54DkQ-20">
          <mxGeometry width="50" height="50" relative="1" as="geometry">
            <mxPoint x="430" y="340" as="sourcePoint" />
            <mxPoint x="480" y="290" as="targetPoint" />
          </mxGeometry>
        </mxCell>
        <mxCell id="rF2TNDhUBK_6BHk54DkQ-28" value="" style="endArrow=none;html=1;rounded=0;exitX=0.443;exitY=-0.007;exitDx=0;exitDy=0;exitPerimeter=0;entryX=0.441;entryY=1.006;entryDx=0;entryDy=0;entryPerimeter=0;" edge="1" parent="1" source="rF2TNDhUBK_6BHk54DkQ-20" target="rF2TNDhUBK_6BHk54DkQ-5">
          <mxGeometry width="50" height="50" relative="1" as="geometry">
            <mxPoint x="430" y="230" as="sourcePoint" />
            <mxPoint x="480" y="180" as="targetPoint" />
          </mxGeometry>
        </mxCell>
        <mxCell id="rF2TNDhUBK_6BHk54DkQ-29" value="Sigmoid" style="ellipse;whiteSpace=wrap;html=1;align=center;newEdgeStyle={&quot;edgeStyle&quot;:&quot;entityRelationEdgeStyle&quot;,&quot;startArrow&quot;:&quot;none&quot;,&quot;endArrow&quot;:&quot;none&quot;,&quot;segment&quot;:10,&quot;curved&quot;:1,&quot;sourcePerimeterSpacing&quot;:0,&quot;targetPerimeterSpacing&quot;:0};treeFolding=1;treeMoving=1;fillColor=#b0e3e6;strokeColor=#0e8088;" vertex="1" parent="1">
          <mxGeometry x="550" y="330" width="90" height="27.5" as="geometry" />
        </mxCell>
        <mxCell id="rF2TNDhUBK_6BHk54DkQ-30" value="" style="endArrow=none;html=1;rounded=0;entryX=0.443;entryY=0.998;entryDx=0;entryDy=0;entryPerimeter=0;" edge="1" parent="1" target="rF2TNDhUBK_6BHk54DkQ-29">
          <mxGeometry width="50" height="50" relative="1" as="geometry">
            <mxPoint x="590" y="400" as="sourcePoint" />
            <mxPoint x="480" y="320" as="targetPoint" />
          </mxGeometry>
        </mxCell>
        <mxCell id="rF2TNDhUBK_6BHk54DkQ-31" value="&lt;b&gt;X&lt;/b&gt;" style="shape=parallelogram;perimeter=parallelogramPerimeter;whiteSpace=wrap;html=1;fixedSize=1;fillColor=#f8cecc;strokeColor=#b85450;" vertex="1" parent="1">
          <mxGeometry x="650" y="260" width="90" height="60" as="geometry" />
        </mxCell>
        <mxCell id="rF2TNDhUBK_6BHk54DkQ-32" value="" style="endArrow=none;html=1;rounded=0;exitX=0.443;exitY=0.044;exitDx=0;exitDy=0;exitPerimeter=0;" edge="1" parent="1" source="rF2TNDhUBK_6BHk54DkQ-29">
          <mxGeometry width="50" height="50" relative="1" as="geometry">
            <mxPoint x="340" y="360" as="sourcePoint" />
            <mxPoint x="590" y="290" as="targetPoint" />
          </mxGeometry>
        </mxCell>
        <mxCell id="rF2TNDhUBK_6BHk54DkQ-33" value="" style="endArrow=classic;html=1;rounded=0;entryX=0;entryY=0.5;entryDx=0;entryDy=0;" edge="1" parent="1" target="rF2TNDhUBK_6BHk54DkQ-31">
          <mxGeometry width="50" height="50" relative="1" as="geometry">
            <mxPoint x="590" y="290" as="sourcePoint" />
            <mxPoint x="550" y="260" as="targetPoint" />
          </mxGeometry>
        </mxCell>
        <mxCell id="rF2TNDhUBK_6BHk54DkQ-34" value="tanh" style="ellipse;whiteSpace=wrap;html=1;align=center;newEdgeStyle={&quot;edgeStyle&quot;:&quot;entityRelationEdgeStyle&quot;,&quot;startArrow&quot;:&quot;none&quot;,&quot;endArrow&quot;:&quot;none&quot;,&quot;segment&quot;:10,&quot;curved&quot;:1,&quot;sourcePerimeterSpacing&quot;:0,&quot;targetPerimeterSpacing&quot;:0};treeFolding=1;treeMoving=1;fillColor=#b0e3e6;strokeColor=#0e8088;" vertex="1" parent="1">
          <mxGeometry x="670" y="200" width="70" height="30" as="geometry" />
        </mxCell>
        <mxCell id="rF2TNDhUBK_6BHk54DkQ-35" value="" style="endArrow=none;html=1;rounded=0;" edge="1" parent="1">
          <mxGeometry width="50" height="50" relative="1" as="geometry">
            <mxPoint x="700" y="200" as="sourcePoint" />
            <mxPoint x="700" y="150" as="targetPoint" />
          </mxGeometry>
        </mxCell>
        <mxCell id="rF2TNDhUBK_6BHk54DkQ-36" value="" style="endArrow=none;html=1;rounded=0;entryX=0.434;entryY=1.004;entryDx=0;entryDy=0;entryPerimeter=0;exitX=0.556;exitY=-0.002;exitDx=0;exitDy=0;exitPerimeter=0;" edge="1" parent="1" source="rF2TNDhUBK_6BHk54DkQ-31" target="rF2TNDhUBK_6BHk54DkQ-34">
          <mxGeometry width="50" height="50" relative="1" as="geometry">
            <mxPoint x="650" y="270" as="sourcePoint" />
            <mxPoint x="700" y="220" as="targetPoint" />
          </mxGeometry>
        </mxCell>
        <mxCell id="rF2TNDhUBK_6BHk54DkQ-37" value="" style="endArrow=none;html=1;rounded=0;entryX=0.553;entryY=1;entryDx=0;entryDy=0;entryPerimeter=0;" edge="1" parent="1" target="rF2TNDhUBK_6BHk54DkQ-31">
          <mxGeometry width="50" height="50" relative="1" as="geometry">
            <mxPoint x="700" y="400" as="sourcePoint" />
            <mxPoint x="660" y="270" as="targetPoint" />
          </mxGeometry>
        </mxCell>
        <mxCell id="rF2TNDhUBK_6BHk54DkQ-38" value="" style="endArrow=classic;html=1;rounded=0;" edge="1" parent="1">
          <mxGeometry width="50" height="50" relative="1" as="geometry">
            <mxPoint x="700" y="400" as="sourcePoint" />
            <mxPoint x="760" y="400" as="targetPoint" />
          </mxGeometry>
        </mxCell>
        <mxCell id="rF2TNDhUBK_6BHk54DkQ-39" value="C(t)" style="text;html=1;align=center;verticalAlign=middle;resizable=0;points=[];autosize=1;strokeColor=none;fillColor=none;" vertex="1" parent="1">
          <mxGeometry x="760" y="132.5" width="40" height="30" as="geometry" />
        </mxCell>
        <mxCell id="rF2TNDhUBK_6BHk54DkQ-40" value="h(t)" style="text;html=1;align=center;verticalAlign=middle;resizable=0;points=[];autosize=1;strokeColor=none;fillColor=none;" vertex="1" parent="1">
          <mxGeometry x="760" y="380" width="40" height="30" as="geometry" />
        </mxCell>
        <mxCell id="rF2TNDhUBK_6BHk54DkQ-42" value="" style="endArrow=none;dashed=1;html=1;dashPattern=1 3;strokeWidth=2;rounded=0;" edge="1" parent="1">
          <mxGeometry width="50" height="50" relative="1" as="geometry">
            <mxPoint x="210" y="410" as="sourcePoint" />
            <mxPoint x="210" y="240" as="targetPoint" />
          </mxGeometry>
        </mxCell>
        <mxCell id="rF2TNDhUBK_6BHk54DkQ-43" value="" style="endArrow=none;dashed=1;html=1;dashPattern=1 3;strokeWidth=2;rounded=0;" edge="1" parent="1">
          <mxGeometry width="50" height="50" relative="1" as="geometry">
            <mxPoint x="210" y="240" as="sourcePoint" />
            <mxPoint x="320" y="240" as="targetPoint" />
          </mxGeometry>
        </mxCell>
        <mxCell id="rF2TNDhUBK_6BHk54DkQ-44" value="" style="endArrow=none;dashed=1;html=1;dashPattern=1 3;strokeWidth=2;rounded=0;entryX=0.988;entryY=0.163;entryDx=0;entryDy=0;entryPerimeter=0;" edge="1" parent="1" target="rF2TNDhUBK_6BHk54DkQ-46">
          <mxGeometry width="50" height="50" relative="1" as="geometry">
            <mxPoint x="210" y="410" as="sourcePoint" />
            <mxPoint x="310" y="410" as="targetPoint" />
          </mxGeometry>
        </mxCell>
        <mxCell id="rF2TNDhUBK_6BHk54DkQ-46" value="&lt;h5&gt;&lt;i&gt;Forget Gate&lt;/i&gt;&lt;/h5&gt;" style="text;html=1;align=center;verticalAlign=middle;resizable=0;points=[];autosize=1;strokeColor=none;fillColor=none;" vertex="1" parent="1">
          <mxGeometry x="220" y="400" width="80" height="60" as="geometry" />
        </mxCell>
        <mxCell id="rF2TNDhUBK_6BHk54DkQ-49" value="" style="endArrow=none;dashed=1;html=1;rounded=0;" edge="1" parent="1">
          <mxGeometry width="50" height="50" relative="1" as="geometry">
            <mxPoint x="310" y="320" as="sourcePoint" />
            <mxPoint x="400" y="320" as="targetPoint" />
          </mxGeometry>
        </mxCell>
        <mxCell id="rF2TNDhUBK_6BHk54DkQ-50" value="" style="endArrow=none;dashed=1;html=1;rounded=0;" edge="1" parent="1">
          <mxGeometry width="50" height="50" relative="1" as="geometry">
            <mxPoint x="310" y="410" as="sourcePoint" />
            <mxPoint x="400" y="410" as="targetPoint" />
          </mxGeometry>
        </mxCell>
        <mxCell id="rF2TNDhUBK_6BHk54DkQ-51" value="" style="endArrow=none;dashed=1;html=1;rounded=0;" edge="1" parent="1">
          <mxGeometry width="50" height="50" relative="1" as="geometry">
            <mxPoint x="400" y="410" as="sourcePoint" />
            <mxPoint x="400" y="320" as="targetPoint" />
            <Array as="points">
              <mxPoint x="400" y="370" />
            </Array>
          </mxGeometry>
        </mxCell>
        <mxCell id="rF2TNDhUBK_6BHk54DkQ-52" value="" style="endArrow=none;dashed=1;html=1;rounded=0;" edge="1" parent="1">
          <mxGeometry width="50" height="50" relative="1" as="geometry">
            <mxPoint x="310" y="410" as="sourcePoint" />
            <mxPoint x="310" y="320" as="targetPoint" />
          </mxGeometry>
        </mxCell>
        <mxCell id="rF2TNDhUBK_6BHk54DkQ-53" value="" style="endArrow=none;dashed=1;html=1;dashPattern=1 3;strokeWidth=2;rounded=0;" edge="1" parent="1">
          <mxGeometry width="50" height="50" relative="1" as="geometry">
            <mxPoint x="320" y="300" as="sourcePoint" />
            <mxPoint x="320" y="240" as="targetPoint" />
          </mxGeometry>
        </mxCell>
        <mxCell id="rF2TNDhUBK_6BHk54DkQ-55" value="" style="endArrow=none;dashed=1;html=1;dashPattern=1 3;strokeWidth=2;rounded=0;" edge="1" parent="1">
          <mxGeometry width="50" height="50" relative="1" as="geometry">
            <mxPoint x="300" y="310" as="sourcePoint" />
            <mxPoint x="320" y="310" as="targetPoint" />
          </mxGeometry>
        </mxCell>
        <mxCell id="rF2TNDhUBK_6BHk54DkQ-57" value="" style="endArrow=none;dashed=1;html=1;dashPattern=1 3;strokeWidth=2;rounded=0;exitX=0.992;exitY=0.17;exitDx=0;exitDy=0;exitPerimeter=0;" edge="1" parent="1" source="rF2TNDhUBK_6BHk54DkQ-46">
          <mxGeometry width="50" height="50" relative="1" as="geometry">
            <mxPoint x="320" y="390" as="sourcePoint" />
            <mxPoint x="300" y="310" as="targetPoint" />
          </mxGeometry>
        </mxCell>
        <mxCell id="rF2TNDhUBK_6BHk54DkQ-58" value="&lt;h5&gt;&lt;i&gt;Input Gate&lt;/i&gt;&lt;/h5&gt;" style="text;html=1;align=center;verticalAlign=middle;resizable=0;points=[];autosize=1;strokeColor=none;fillColor=none;" vertex="1" parent="1">
          <mxGeometry x="315" y="400" width="70" height="60" as="geometry" />
        </mxCell>
        <mxCell id="rF2TNDhUBK_6BHk54DkQ-59" value="" style="endArrow=none;dashed=1;html=1;dashPattern=1 3;strokeWidth=2;rounded=0;" edge="1" parent="1">
          <mxGeometry width="50" height="50" relative="1" as="geometry">
            <mxPoint x="540" y="410" as="sourcePoint" />
            <mxPoint x="540" y="330" as="targetPoint" />
          </mxGeometry>
        </mxCell>
        <mxCell id="rF2TNDhUBK_6BHk54DkQ-60" value="" style="endArrow=none;dashed=1;html=1;dashPattern=1 3;strokeWidth=2;rounded=0;" edge="1" parent="1">
          <mxGeometry width="50" height="50" relative="1" as="geometry">
            <mxPoint x="540" y="410" as="sourcePoint" />
            <mxPoint x="650" y="410" as="targetPoint" />
          </mxGeometry>
        </mxCell>
        <mxCell id="rF2TNDhUBK_6BHk54DkQ-61" value="" style="endArrow=none;dashed=1;html=1;dashPattern=1 3;strokeWidth=2;rounded=0;" edge="1" parent="1">
          <mxGeometry width="50" height="50" relative="1" as="geometry">
            <mxPoint x="650" y="410" as="sourcePoint" />
            <mxPoint x="650" y="330" as="targetPoint" />
          </mxGeometry>
        </mxCell>
        <mxCell id="rF2TNDhUBK_6BHk54DkQ-62" value="" style="endArrow=none;dashed=1;html=1;dashPattern=1 3;strokeWidth=2;rounded=0;" edge="1" parent="1">
          <mxGeometry width="50" height="50" relative="1" as="geometry">
            <mxPoint x="540" y="330" as="sourcePoint" />
            <mxPoint x="650" y="330" as="targetPoint" />
          </mxGeometry>
        </mxCell>
        <mxCell id="rF2TNDhUBK_6BHk54DkQ-63" value="&lt;h5&gt;&lt;i&gt;Output Gate&lt;/i&gt;&lt;/h5&gt;" style="text;html=1;align=center;verticalAlign=middle;resizable=0;points=[];autosize=1;" vertex="1" parent="1">
          <mxGeometry x="560" y="400" width="80" height="60" as="geometry" />
        </mxCell>
        <mxCell id="rF2TNDhUBK_6BHk54DkQ-64" value="" style="endArrow=none;dashed=1;html=1;dashPattern=1 3;strokeWidth=2;rounded=0;" edge="1" parent="1">
          <mxGeometry width="50" height="50" relative="1" as="geometry">
            <mxPoint x="200" y="200" as="sourcePoint" />
            <mxPoint x="520" y="200" as="targetPoint" />
          </mxGeometry>
        </mxCell>
        <mxCell id="rF2TNDhUBK_6BHk54DkQ-65" value="" style="endArrow=none;dashed=1;html=1;dashPattern=1 3;strokeWidth=2;rounded=0;" edge="1" parent="1">
          <mxGeometry width="50" height="50" relative="1" as="geometry">
            <mxPoint x="200" y="200" as="sourcePoint" />
            <mxPoint x="200" y="110" as="targetPoint" />
          </mxGeometry>
        </mxCell>
        <mxCell id="rF2TNDhUBK_6BHk54DkQ-66" value="" style="endArrow=none;dashed=1;html=1;dashPattern=1 3;strokeWidth=2;rounded=0;" edge="1" parent="1">
          <mxGeometry width="50" height="50" relative="1" as="geometry">
            <mxPoint x="200" y="110" as="sourcePoint" />
            <mxPoint x="510" y="110" as="targetPoint" />
          </mxGeometry>
        </mxCell>
        <mxCell id="rF2TNDhUBK_6BHk54DkQ-67" value="" style="endArrow=none;dashed=1;html=1;dashPattern=1 3;strokeWidth=2;rounded=0;" edge="1" parent="1">
          <mxGeometry width="50" height="50" relative="1" as="geometry">
            <mxPoint x="510" y="200" as="sourcePoint" />
            <mxPoint x="510" y="110" as="targetPoint" />
          </mxGeometry>
        </mxCell>
        <mxCell id="rF2TNDhUBK_6BHk54DkQ-68" value="&lt;h5&gt;&lt;i&gt;Memory Gate&lt;/i&gt;&lt;/h5&gt;" style="text;html=1;align=center;verticalAlign=middle;resizable=0;points=[];autosize=1;strokeColor=none;fillColor=none;" vertex="1" parent="1">
          <mxGeometry x="320" y="60" width="90" height="60" as="geometry" />
        </mxCell>
        <mxCell id="rF2TNDhUBK_6BHk54DkQ-70" value="" style="endArrow=none;html=1;rounded=0;fillColor=#b1ddf0;strokeColor=#000000;" edge="1" parent="1">
          <mxGeometry width="50" height="50" relative="1" as="geometry">
            <mxPoint x="20" y="520" as="sourcePoint" />
            <mxPoint x="20" y="80" as="targetPoint" />
          </mxGeometry>
        </mxCell>
        <mxCell id="rF2TNDhUBK_6BHk54DkQ-71" value="" style="endArrow=none;html=1;rounded=0;fillColor=#b1ddf0;strokeColor=#000000;" edge="1" parent="1">
          <mxGeometry width="50" height="50" relative="1" as="geometry">
            <mxPoint x="20" y="80" as="sourcePoint" />
            <mxPoint x="800" y="80" as="targetPoint" />
          </mxGeometry>
        </mxCell>
        <mxCell id="rF2TNDhUBK_6BHk54DkQ-72" value="" style="endArrow=none;html=1;rounded=1;curved=0;strokeColor=#000000;" edge="1" parent="1">
          <mxGeometry width="50" height="50" relative="1" as="geometry">
            <mxPoint x="20" y="520" as="sourcePoint" />
            <mxPoint x="800" y="520" as="targetPoint" />
          </mxGeometry>
        </mxCell>
        <mxCell id="rF2TNDhUBK_6BHk54DkQ-73" value="" style="endArrow=none;html=1;rounded=0;fillColor=#b1ddf0;strokeColor=#000000;" edge="1" parent="1">
          <mxGeometry width="50" height="50" relative="1" as="geometry">
            <mxPoint x="800" y="520" as="sourcePoint" />
            <mxPoint x="800" y="80" as="targetPoint" />
          </mxGeometry>
        </mxCell>
      </root>
    </mxGraphModel>
  </diagram>
</mxfile>
